<svg xmlns="http://www.w3.org/2000/svg" viewBox="0 0 512 512">
  <circle fill="#ffffff" cx="255.996" cy="255.996" r="247.906"/>
  <g opacity="0.12">
    <path fill="#111418" d="M51.869,256c0-129.537,99.358-235.849,226.018-246.932c-7.214-0.631-14.51-0.973-21.886-0.973 C119.087,8.096,8.097,119.086,8.097,256S119.087,503.904,256,503.904c7.377,0,14.674-0.341,21.886-0.973 C151.227,491.849,51.869,385.537,51.869,256z"/>
  </g>
  <path fill="#111418" d="M453.001,105.51c-8.554-11.179-26.337-7.132-29.483,6.588l-19.379,84.522 c-0.137,0.601-0.231,1.203-0.301,1.807l-70.52,31.138c-0.093-0.07-0.179-0.148-0.274-0.217l-67.207-48.828 c-0.559-0.406-1.142-0.761-1.736-1.09V97.026c0.224-0.124,0.449-0.245,0.669-0.38l73.866-45.455 c12.01-7.391,10.1-25.543-3.257-30.067c-24.919-8.437-51.607-13.029-79.378-13.029s-54.461,4.591-79.379,13.029 c-13.357,4.523-15.268,22.676-3.257,30.067l73.866,45.454c0.22,0.135,0.445,0.256,0.67,0.38v82.404 c-0.593,0.328-1.176,0.684-1.735,1.09l-67.207,48.828c-0.095,0.069-0.18,0.146-0.274,0.217l-70.52-31.137 c-0.07-0.604-0.164-1.206-0.301-1.807l-19.38-84.522c-3.146-13.72-20.929-17.767-29.483-6.588 C27.071,147.238,8.097,199.401,8.097,256c0,0.113,0,0.227,0,0.34c0.021,13.923,16.446,21.401,27.158,12.508l66.761-55.426 l70.12,30.961c0.111,1.231,0.351,2.463,0.745,3.674l25.671,79.005c0.228,0.7,0.509,1.372,0.82,2.023l-44.086,49.305 c-0.692-0.156-1.398-0.274-2.115-0.341l-86.268-8.093c-14.071-1.32-23.436,14.384-15.444,26.04 c30.343,44.249,74.661,78.141,126.605,95.33c13.433,4.446,25.955-8.869,20.786-22.041l-31.45-80.139l45.271-50.63 c0.592,0.064,1.189,0.108,1.795,0.108h83.072c0.606,0,1.203-0.044,1.795-0.108l45.271,50.63l-31.45,80.139 c-5.169,13.171,7.353,26.486,20.786,22.041c51.943-17.19,96.261-51.081,126.605-95.33c7.992-11.656-1.373-27.36-15.444-26.04 l-86.267,8.093c-0.718,0.068-1.424,0.186-2.116,0.341l-44.086-49.305c0.31-0.652,0.592-1.323,0.82-2.023l25.671-79.005 c0.394-1.212,0.634-2.443,0.745-3.673l70.12-30.961l66.761,55.426c10.712,8.893,27.139,1.415,27.159-12.508c0-0.113,0-0.227,0-0.34 C503.904,199.401,484.93,147.238,453.001,105.51z"/>
  <path fill="#111418" d="M511.921,250.052c-0.733-30.931-6.977-61.718-18.618-90.468 c-12.804-31.622-32.147-60.503-56.264-84.612c-12.861-12.861-27.063-24.381-42.336-34.261 c-15.124-9.783-31.289-17.951-48.143-24.308c-16.899-6.375-34.477-10.925-52.341-13.581c-20.529-3.052-41.426-3.635-62.093-1.722 c-18.285,1.694-36.381,5.317-53.886,10.872c-17.233,5.468-33.872,12.791-49.546,21.802c-15.841,9.107-30.684,19.93-44.233,32.189 c-3.233,2.925-6.356,5.957-9.469,9.009c-22.517,22.517-40.834,49.152-53.613,78.329c-8.179,18.674-14.098,38.327-17.577,58.416 c-0.012,0.07-0.024,0.14-0.037,0.211c-5.549,32.177-4.956,65.44,1.778,97.391c6.093,28.91,17.267,56.691,32.899,81.763 c10.376,16.644,22.682,32.068,36.55,45.935C123.346,485.371,187.635,512,256.016,512s132.669-26.629,181.022-74.982 c33.886-33.886,57.949-76.989,68.582-123.743C510.336,292.54,512.424,271.262,511.921,250.052z M354.725,37.325 c26.054,11.775,50.036,28.282,70.857,49.104c1.978,1.978,3.901,3.993,5.801,6.027c-7.78,2.818-13.809,9.372-15.747,17.827 l-19.379,84.522c-0.553,2.413-0.731,4.843-0.576,7.225l-54.272,23.963c-1.081-1.161-2.27-2.242-3.592-3.202l-67.207-48.828 c-2.01-1.46-4.198-2.585-6.495-3.378v-64.727c1.709-0.59,3.358-1.36,4.913-2.317l73.866-45.455 C350.262,53.554,354.604,45.796,354.725,37.325z M331.433,245.549l-25.671,79.006c-0.571,1.758-1.665,3.227-3.074,4.269 c-0.029,0.021-0.056,0.045-0.085,0.067c-1.434,1.034-3.185,1.628-5.05,1.628h-83.072c-1.863,0-3.612-0.593-5.045-1.624 c-0.032-0.025-0.065-0.051-0.097-0.075c-1.406-1.042-2.498-2.51-3.068-4.265l-25.671-79.005c-1.159-3.569,0.1-7.447,3.137-9.652 l67.207-48.827c1.484-1.079,3.239-1.648,5.074-1.648s3.589,0.57,5.074,1.648l67.207,48.828 C331.331,238.102,332.592,241.982,331.433,245.549z M173.555,35.888c0.143-1.262,0.973-5.503,5.679-7.096 c49.443-16.742,104.122-16.741,153.563,0c4.705,1.593,5.536,5.833,5.679,7.095c0.146,1.293,0.285,5.72-4.07,8.4L260.54,89.742 c-2.723,1.676-6.327,1.676-9.049,0l-73.866-45.454C173.27,41.608,173.409,37.181,173.555,35.888z M86.449,86.429 c20.821-20.821,44.803-37.329,70.856-49.104c0.121,8.471,4.464,16.229,11.828,20.761l73.867,45.454 c1.555,0.957,3.206,1.727,4.915,2.317v64.727c-2.298,0.794-4.485,1.917-6.497,3.378l-67.207,48.828 c-1.321,0.96-2.51,2.041-3.591,3.202l-54.272-23.962c0.156-2.383-0.023-4.812-0.576-7.225l-19.38-84.522 c-1.939-8.456-7.968-15.01-15.747-17.827C82.547,90.423,84.472,88.406,86.449,86.429z M16.333,255.982 c-0.082-0.745-0.116-1.506-0.107-2.269c0.138-13.076,1.284-26.14,3.509-39.028c0.008-0.042,0.015-0.085,0.023-0.127 c5.759-33.244,18.67-65.057,37.63-92.959c2.581-3.799,5.271-7.524,8.062-11.171c2.077-2.714,4.722-3.284,6.575-3.284 c3.498,0,7.509,2.09,8.579,6.76l19.378,84.522c0.732,3.194-0.379,6.478-2.9,8.571l-66.986,55.614 c-1.586,1.317-3.39,1.983-5.362,1.983C19.179,264.595,16.84,260.599,16.333,255.982z M45.71,371.415 c-15.515-28.176-25.185-59.256-28.348-91.733c2.33,0.723,4.806,1.114,7.372,1.114c5.771,0,11.205-1.978,15.711-5.719l66.986-55.614 c0.94-0.781,1.808-1.62,2.609-2.508l54.013,23.848c-0.268,3.222,0.092,6.531,1.138,9.753l25.671,79.006 c0.689,2.121,1.655,4.088,2.827,5.891l-32.491,36.339c-2.276-0.945-4.711-1.573-7.257-1.811l-86.267-8.093 c-0.802-0.076-1.614-0.113-2.411-0.113C57.532,361.774,50.373,365.388,45.71,371.415z M190.449,480.238 c-2.19,3.214-6.081,4.636-9.826,3.396c-49.407-16.351-92.9-49.102-122.469-92.222c-2.609-3.804-1.218-7.391-0.499-8.756 c1.544-2.93,4.388-4.68,7.608-4.68c0.294,0,0.596,0.014,0.898,0.043l86.267,8.093c3.263,0.306,6.033,2.391,7.23,5.441l31.666,80.689 C192.778,475.949,191.401,478.842,190.449,480.238z M256.017,495.799c-17.938,0-35.574-1.958-52.666-5.77 c0.161-0.221,0.328-0.439,0.484-0.665c4.683-6.869,5.621-15.268,2.569-23.041l-31.666-80.689c-0.417-1.063-0.904-2.083-1.448-3.061 l33.226-37.159c2.515,0.848,5.196,1.309,7.965,1.309h83.072c2.768,0,5.449-0.46,7.964-1.309l33.226,37.159 c-0.544,0.977-1.031,1.998-1.448,3.061l-31.666,80.689c-3.05,7.772-2.114,16.17,2.569,23.039c0.156,0.229,0.323,0.446,0.486,0.669 C291.589,493.841,273.953,495.799,256.017,495.799z M453.878,391.411c-29.569,43.119-73.062,75.872-122.469,92.222 c-0.929,0.308-1.862,0.463-2.774,0.463l0,0c-2.768,0-5.405-1.443-7.053-3.861c-0.95-1.394-2.328-4.287-0.874-7.994l31.666-80.689 c1.197-3.05,3.967-5.136,7.23-5.441l86.267-8.093c0.301-0.028,0.604-0.043,0.899-0.043c3.219,0,6.062,1.75,7.607,4.681 C455.095,384.022,456.486,387.607,453.878,391.411z M466.321,371.416c-4.663-6.028-11.822-9.643-19.552-9.643 c-0.798,0-1.609,0.038-2.411,0.113l-86.268,8.093c-2.546,0.239-4.981,0.866-7.256,1.811l-32.491-36.339 c1.172-1.803,2.137-3.769,2.827-5.891l25.671-79.006c1.047-3.222,1.406-6.531,1.139-9.753l54.012-23.849 c0.801,0.888,1.67,1.728,2.609,2.508l66.986,55.614c4.506,3.741,9.939,5.719,15.711,5.719c0.001,0,0.001,0,0.002,0 c2.565,0,5.041-0.391,7.37-1.114C491.507,312.16,481.838,343.241,466.321,371.416z M495.815,256.415 c-0.058,5.122-4.357,8.181-8.515,8.181c-1.974,0-3.779-0.667-5.364-1.983l-66.987-55.614c-2.521-2.093-3.631-5.378-2.9-8.571 l19.38-84.522c1.071-4.67,5.081-6.76,8.579-6.76c1.853,0,4.498,0.569,6.575,3.284c30.576,39.955,48.026,89.658,49.17,140.139 c0.041,1.809,0.067,3.618,0.067,5.428C495.82,256.135,495.815,256.274,495.815,256.415z"/>
  <path fill="#f2b705" stroke="#111418" stroke-width="24" stroke-linejoin="round" paint-order="stroke" d="M183.6 284.7L136.9 325.7L233.1 325.7L233.1 367.2L74.2 367.2L74.2 325.7L154 255.3Q164.7 245.6 169.8 236.4Q175 227.2 175 217.2Q175 201.8 164.6 192.4Q154.3 183.1 137.2 183.1Q124 183.1 108.3 188.7Q92.6 194.4 74.8 205.5L74.8 157.4Q93.8 151.1 112.4 147.8Q131 144.5 148.9 144.5Q188.1 144.5 209.9 161.8Q231.7 179.1 231.7 210Q231.7 227.9 222.4 243.4Q213.2 258.8 183.6 284.7M353.7 259.2Q338.9 259.2 331.5 268.8Q324.1 278.4 324.1 297.6Q324.1 316.8 331.5 326.4Q338.9 336 353.7 336Q368.7 336 376.1 326.4Q383.5 316.8 383.5 297.6Q383.5 278.4 376.1 268.8Q368.7 259.2 353.7 259.2M423.5 154.2L423.5 194.6Q409.5 188.1 397.2 184.9Q384.9 181.8 373.2 181.8Q348 181.8 334 195.7Q319.9 209.7 317.6 237.3Q327.2 230.1 338.5 226.5Q349.8 222.9 363.1 222.9Q396.7 222.9 417.2 242.5Q437.8 262.2 437.8 294Q437.8 329.1 414.8 350.3Q391.8 371.5 353.2 371.5Q310.5 371.5 287.2 342.7Q263.8 313.9 263.8 261Q263.8 206.8 291.1 175.8Q318.4 144.8 366 144.8Q381.1 144.8 395.3 147.2Q409.5 149.5 423.5 154.2"/>
</svg>
